# AST/ASF file generated using VICON BodyLanguage
# -----------------------------------------------
:version 1.10
:name VICON
:units
  mass 1.0
  length 0.45
  angle deg
:documentation
   .ast/.asf automatically generated from VICON data using
   VICON BodyBuilder and BodyLanguage model FoxedUp or BRILLIANT.MOD
:root
   order TX TY TZ RX RY RZ
   axis XYZ
   position 0 0 0  
   orientation 0 0 0 
:bonedata
  begin
     id 1 
     name lhipjoint
     direction 0.710087 -0.641647 0.289942 
     length 2.79038 
     axis 0 0 0  XYZ
  end
  begin
     id 2 
     name lfemur
     direction 0.34202 -0.939693 0  
     length 7.2706  
     axis 0 0 20  XYZ
    dof rx ry rz
    limits (-160.0 20.0)
           (-70.0 70.0)
           (-60.0 70.0)
  end
  begin
     id 3 
     name ltibia
     direction 0.34202 -0.939693 0   
     length 7.86328   
     axis 0 0 20   XYZ
    dof rx
    limits (-10.0 170.0)
  end
  begin
     id 4 
     name lfoot
     direction 0.0541246 -0.148706 0.987399   
     length 2.37542   
     axis -90 7.62852e-016 20   XYZ
    dof rx rz
    limits (-45.0 90.0)
           (-70.0 20.0)
  end
  begin
     id 5 
     name ltoes
     direction 1.53554e-011 -4.21866e-011 1   
     length 1.19593   
     axis -90 7.62852e-016 20   XYZ
    dof rx
    limits (-90.0 20.0)
  end
  begin
     id 6 
     name rhipjoint
     direction -0.675762 -0.671724 0.303533   
     length 2.66544  
     axis 0 0 0  XYZ 
  end
  begin
     id 7 
     name rfemur
     direction -0.34202 -0.939693 0   
     length 8.11844   
     axis 0 0 -20   XYZ
    dof rx ry rz
    limits (-160.0 20.0)
           (-70.0 70.0)
           (-70.0 60.0)
  end
  begin
     id 8 
     name rtibia
     direction -0.34202 -0.939693 0   
     length 7.97082   
     axis 0 0 -20   XYZ
    dof rx
    limits (-10.0 170.0)
 end
 begin
     id 9 
     name rfoot
     direction -0.0726228 -0.199474 0.977208   
     length 2.19677  
     axis -90 -7.62852e-016 -20   XYZ
    dof rx rz
    limits (-45.0 90.0)
           (-20.0 70.0)
  end
  begin
     id 10 
     name rtoes
     direction -1.53508e-011 -4.21913e-011 1   
     length 1.10438   
     axis -90 -7.62852e-016 -20   XYZ
    dof rx
    limits (-90.0 20.0)
  end
  begin
     id 11 
     name lowerback
     direction -0.00404436 0.999673 -0.0252643   
     length 2.03972   
     axis 0 0 0   XYZ
    dof rx ry rz
    limits (-20.0 45.0)
           (-30.0 30.0)
           (-30.0 30.0)
  end
  begin
     id 12 
     name upperback
     direction 0.00744643 0.999969 0.00242763   
     length 2.04273   
     axis 0 0 0   XYZ
    dof rx ry rz
    limits (-20.0 45.0)
           (-30.0 30.0)
           (-30.0 30.0)
  end
  begin
     id 13 
     name thorax
     direction 0.00846113 0.999862 0.0143204   
     length 2.03752   
     axis 0 0 0   XYZ
    dof rx ry rz
    limits (-20.0 45.0)
           (-30.0 30.0)
           (-30.0 30.0)
  end
  begin
     id 14 
     name lowerneck
     direction 0.0328213 0.990857 0.130862   
     length 1.37497   
     axis 0 0 0   XYZ
    dof rx ry rz
    limits (-20.0 45.0)
           (-30.0 30.0)
           (-30.0 30.0)
  end
  begin
     id 15 
     name upperneck
     direction -0.0302832 0.999496 0.00956452   
     length 1.35926   
     axis 0 0 0   XYZ
    dof rx ry rz
    limits (-20.0 45.0)
           (-30.0 30.0)
           (-30.0 30.0)
  end
  begin
     id 16
     name head
     direction -0.0130455 0.999856 -0.0108809  
     length 1.44454  
     axis 0 0 0   XYZ
    dof rx ry rz
    limits (-20.0 45.0)
           (-30.0 30.0)
           (-30.0 30.0)
  end
  begin
     id 17 
     name lclavicle
     direction 0.952957 0.278766 0.119006  
     length 3.10112  
     axis 0 0 0   XYZ
    dof ry rz
    limits (-20.0 10.0)
           (0.0 20.0)
  end
  begin
     id 18 
     name lhumerus
     direction 1 -4.48972e-011 -1.63238e-028   
     length 5.82845   
     axis -180 -30 -90   XYZ
    dof rx ry rz
    limits (-60.0 90.0)
           (-90.0 90.0)
           (-90.0 90.0)
  end
  begin
     id 19
     name lradius
     direction 1 -4.48959e-011 1.45401e-026   
     length 3.49691   
     axis -180 -30 -90   XYZ
    dof rx
    limits (-10.0 170.0)
  end
  begin
     id 20
     name lwrist
     direction 1 -4.48945e-011 2.98015e-026   
     length 1.74845   
     axis -1.7599e-014 90 90   XYZ
    dof ry
    limits (-180.0 0.0)
 end
  begin
     id 21 
     name lhand
     direction 1 -4.4902e-011 5.9603e-026   
     length 0.674998   
     axis -3.80318e-014 90 90   XYZ
    dof rx rz
    limits (-90.0 90.0)
           (-45.0 45.0)
  end
  begin
     id 22 
     name lfingers
     direction 1 -4.48979e-011 1.19206e-025   
     length 0.544201   
     axis -7.60636e-014 90 90   XYZ
    dof rx
    limits (0.0 90.0)
  end
  begin
     id 23
     name lthumb
     direction 0.707107 -6.34941e-011 0.707107   
     length 0.781367   
     axis -90 45 2.85299e-015   XYZ
    dof rx rz
    limits (-45.0 45.0)
           (-45.0 45.0)
  end
  begin
     id 24 
     name rclavicle
     direction -0.967632 0.241887 0.0719654   
     length 3.53012  
     axis 0 0 0   XYZ 
    dof ry rz
    limits (-10.0 20.0)
           (-20.0 0.0)
  end
  begin
     id 25 
     name rhumerus
     direction -1 -4.4897e-011 6.87619e-028  
     length 5.45859   
     axis -180 30 90   XYZ
    dof rx ry rz
    limits (-90.0 60.0)
           (-90.0 90.0)
           (-90.0 90.0)
  end
  begin
     id 26 
     name rradius
     direction -1 -4.48967e-011 1.68055e-026   
     length 3.58491   
     axis -180 30 90   XYZ
    dof rx
    limits (-10.0 170.0)
  end
  begin
     id 27 
     name rwrist
     direction -1 -4.48976e-011 2.98015e-026   
     length 1.79245   
     axis -1.7599e-014 -90 -90   XYZ
    dof ry
    limits (-180.0 0.0)
  end
  begin
     id 28
     name rhand
     direction -1 -4.48996e-011 5.9603e-026   
     length 0.683735   
     axis -3.80318e-014 -90 -90   XYZ
    dof rx rz
    limits (-90.0 90.0)
           (-45.0 45.0)
  end
  begin
     id 29
     name rfingers
     direction -1 -4.48924e-011 1.19206e-025   
     length 0.551245   
     axis -7.60636e-014 -90 -90   XYZ
    dof rx
    limits (0.0 90.0)
  end
  begin
     id 30
     name rthumb
     direction -0.707107 -6.3492e-011 0.707107   
     length 0.791481   
     axis -90 -45 -2.85299e-015   XYZ
    dof rx rz
    limits (-45.0 45.0)
           (-45.0 45.0)
  end
:hierarchy
  begin
    root lhipjoint rhipjoint lowerback
    lhipjoint lfemur
    lfemur ltibia
    ltibia lfoot
    lfoot ltoes
    rhipjoint rfemur
    rfemur rtibia
    rtibia rfoot
    rfoot rtoes
    lowerback upperback
    upperback thorax
    thorax lowerneck lclavicle rclavicle
    lowerneck upperneck
    upperneck head
    lclavicle lhumerus
    lhumerus lradius
    lradius lwrist
    lwrist lhand lthumb
    lhand lfingers
    rclavicle rhumerus
    rhumerus rradius
    rradius rwrist
    rwrist rhand rthumb
    rhand rfingers
  end

#!OML:ASF F:\VICON\USERDATA\INSTALL\rory3\rory3.ASF
:FULLY-SPECIFIED
:DEGREES
1353
root -3.02249 18.8693 -29.8368 -144.704 -69.9703 131.049
lowerback 4.20721 5.51694 3.67108
upperback 8.5395 6.87632 3.495
thorax 6.58183 3.38779 1.71787
lowerneck 0.297304 24.5286 11.0712
upperneck 15.7774 33.0482 -1.02282
head 6.75553 16.6495 0.633765
rclavicle 5.26779e-015 -4.45278e-014
rhumerus -81.3117 17.07 -112.477
rradius 34.9814
rwrist -0.392088
rhand 9.17616 393.031
rfingers 7.12502
rthumb 34.3445 -353.676
lclavicle 5.26779e-015 -4.45278e-014
lhumerus -16.5052 33.9331 -22.9411
lradius 35.0078
lwrist 35.5976
lhand -30.4775 58.6406
lfingers 7.12502
lthumb -183.779 268.587
rfemur 4.50359 16.7638 14.1059
rtibia 36.3587
rfoot -5.80373 8.69386
rtoes 29.577
lfemur -34.5562 5.14465 -13.7149
ltibia 5.725e-014
lfoot 3.83243 10.078
ltoes 20.0909
1354
root -3.04785 18.8051 -29.8571 -144.981 -70.7421 131.393
lowerback 4.09822 5.49667 3.56289
upperback 8.3948 6.85303 3.61094
thorax 6.45818 3.36792 1.89478
lowerneck 0.371545 24.4749 10.6719
upperneck 15.622 32.9678 -0.917792
head 6.60768 16.6053 0.641159
rclavicle 6.06293e-015 6.36111e-014
rhumerus -80.7261 17.4481 -111.678
rradius 33.9567
rwrist 0.298583
rhand 9.92399 393.425
rfingers 7.12502
rthumb 35.0542 -353.119
lclavicle 6.06293e-015 6.36111e-014
lhumerus -17.5749 34.5083 -22.2914
lradius 35.0757
lwrist 36.0176
lhand -30.5241 58.7946
lfingers 7.12502
lthumb -183.824 268.74
rfemur 4.3025 15.9242 14.6913
rtibia 37.0807
rfoot -5.94386 9.16414
rtoes 28.3066
lfemur -34.1106 4.2071 -14.709
ltibia -9.54166e-015
lfoot 4.02239 10.429
ltoes 17.5319
1355
root -3.06971 18.7524 -29.8856 -145.921 -71.5969 132.51
lowerback 3.86873 5.57139 3.70039
upperback 8.26238 6.95396 3.66172
thorax 6.45744 3.42736 1.89028
lowerneck 0.348719 24.3089 10.8628
upperneck 15.3794 32.7477 -1.12296
head 6.58434 16.4917 0.543188
rclavicle 2.82274e-014 -9.54166e-014
rhumerus -79.6252 17.5173 -110.784
rradius 32.9917
rwrist 1.31844
rhand 10.4595 394.034
rfingers 7.12502
rthumb 35.562 -352.389
lclavicle 2.82274e-014 -9.54166e-014
lhumerus -18.3063 35.3359 -21.4231
lradius 34.9896
lwrist 36.4156
lhand -30.734 59.1783
lfingers 7.12502
lthumb -184.026 269.12
rfemur 3.97246 15.08 15.5292
rtibia 37.8218
rfoot -6.21774 9.61718
rtoes 26.6022
lfemur -33.4367 3.39444 -15.4242
ltibia 1.27222e-013
lfoot 5.25144 10.4543
ltoes 8.43492
1356
root -3.09519 18.6986 -29.9202 -147.219 -72.3429 134.095
lowerback 3.38299 5.66697 3.71056
upperback 8.09994 7.07067 3.77315
thorax 6.54591 3.48527 2.04349
lowerneck 0.617737 24.1224 11.2711
upperneck 15.0083 32.5555 -1.57452
head 6.55136 16.3935 0.333006
rclavicle -7.85199e-014 -3.81667e-014
rhumerus -78.6776 17.7725 -110.161
rradius 32.4146
rwrist 1.97547
rhand 10.8898 394.24
rfingers 7.12502
rthumb 35.9698 -352.084
lclavicle -7.85199e-014 -3.81667e-014
lhumerus -19.1244 35.6168 -20.4413
lradius 34.8184
lwrist 37.3235
lhand -31.1913 59.3448
lfingers 7.12502
lthumb -184.468 269.278
rfemur 3.5028 14.616 16.5097
rtibia 38.6648
rfoot -6.61871 9.87699
rtoes 25.9928
lfemur -32.4674 2.85187 -15.966
ltibia -6.99722e-014
lfoot 4.95066 11.3944
ltoes 10.1338
1357
root -3.11756 18.6468 -29.9567 -148.142 -72.9086 135.229
lowerback 3.02273 5.73579 3.41235
upperback 7.93111 7.16706 3.82753
thorax 6.52118 3.51832 2.28804
lowerneck 0.686301 24.097 11.1232
upperneck 14.656 32.5093 -1.56883
head 6.39843 16.3691 0.29724
rclavicle 3.90363e-014 4.13472e-014
rhumerus -77.7219 18.1503 -109.706
rradius 32.0281
rwrist 2.47707
rhand 10.8996 394.939
rfingers 7.12502
rthumb 35.9791 -351.382
lclavicle 3.90363e-014 4.13472e-014
lhumerus -19.9757 36.4307 -19.3455
lradius 34.4743
lwrist 37.6087
lhand -31.6521 59.8127
lfingers 7.12502
lthumb -184.913 269.736
rfemur 3.02175 14.2162 17.2344
rtibia 39.5518
rfoot -7.34772 10.111
rtoes 21.4186
lfemur -31.106 2.43531 -16.7124
ltibia 3.49861e-014
lfoot 4.00625 12.5815
ltoes 14.2775
1358
root -3.1386 18.5815 -29.9955 -149.083 -73.5864 136.295
lowerback 2.79537 5.74478 3.12515
upperback 7.7577 7.18497 3.93851
thorax 6.41057 3.51077 2.56742
lowerneck 0.795605 24.1192 10.3104
upperneck 14.0808 32.516 -1.38004
head 6.03706 16.3623 0.315657
rclavicle -4.3832e-014 1.24042e-013
rhumerus -77.1005 18.781 -109.657
rradius 32.2448
rwrist 2.3362
rhand 10.8085 395.335
rfingers 7.12502
rthumb 35.8927 -351.008
lclavicle -4.3832e-014 1.24042e-013
lhumerus -20.9576 37.953 -17.9554
lradius 34.225
lwrist 37.1768
lhand -31.8721 60.3038
lfingers 7.12502
lthumb -185.125 89.7782
rfemur 2.58372 13.622 17.975
rtibia 40.5377
rfoot -8.58253 10.3414
rtoes 12.3225
lfemur -29.429 1.96097 -17.418
ltibia -1.01778e-013
lfoot 3.07853 13.7056
ltoes 18.8154
1359
root -3.15627 18.5171 -30.0383 -150.592 -74.3669 137.944
lowerback 2.52815 5.73132 3.15913
upperback 7.59272 7.16937 3.96454
thorax 6.38669 3.50721 2.59223
lowerneck 1.03263 24.0941 9.85095
upperneck 13.3753 32.4875 -1.44189
head 5.71122 16.3396 0.230433
rclavicle 8.99501e-015 0
rhumerus -76.2123 19.2646 -109.617
rradius 32.529
rwrist 2.2666
rhand 10.4492 395.778
rfingers 7.12502
rthumb 35.5522 -350.647
lclavicle 8.99501e-015 0
lhumerus -22.0223 39.1282 -16.4589
lradius 34.2193
lwrist 37.0299
lhand -31.7754 61.1592
lfingers 7.12502
lthumb -185.032 88.9205
rfemur 2.084 12.8858 18.8773
rtibia 41.6014
rfoot -9.36103 10.6186
rtoes 6.10092
lfemur -27.5206 1.55348 -17.8913
ltibia -7.31528e-014
lfoot 2.94057 14.618
ltoes 20.8631
1360
root -3.17043 18.443 -30.0822 -151.907 -75.2246 139.418
lowerback 2.33633 5.7135 3.26673
upperback 7.37731 7.16365 3.85837
thorax 6.29212 3.5193 2.42889
lowerneck 1.00747 24.0194 9.78266
upperneck 13.0032 32.3603 -1.43086
head 5.57563 16.2752 0.195286
rclavicle 6.61021e-014 -2.54444e-014
rhumerus -75.0233 19.3738 -109.372
rradius 32.8085
rwrist 2.39322
rhand 10.1263 396.763
rfingers 7.12502
rthumb 35.2461 -349.736
lclavicle 6.61021e-014 -2.54444e-014
lhumerus -22.6259 39.3755 -14.5918
lradius 34.0671
lwrist 37.8441
lhand -31.9782 61.8375
lfingers 7.12502
lthumb -185.228 88.247
rfemur 1.58933 12.0087 19.7744
rtibia 42.706
rfoot -9.88336 10.8085
rtoes 3.11071
lfemur -27.3361 0.768976 -18.45
ltibia 3.41228
lfoot 3.89547 14.1382
ltoes 11.5104
1361
root -3.18566 18.3495 -30.1239 -153.113 -76.1575 140.732
lowerback 2.19119 5.63652 3.33155
upperback 7.14444 7.08228 3.74753
thorax 6.1479 3.49133 2.27427
lowerneck 1.12491 23.9118 9.52893
upperneck 12.2945 32.19 -1.40775
head 5.27907 16.1904 0.121889
rclavicle -2.19409e-014 -9.54166e-015
rhumerus -74.272 19.7712 -109.701
rradius 33.5233
rwrist 1.79185
rhand 9.22669 397.052
rfingers 7.12502
rthumb 34.3925 -349.644
lclavicle -2.19409e-014 -9.54166e-015
lhumerus -23.0061 39.761 -12.56
lradius 33.5543
lwrist 38.2359
lhand -31.9068 62.3046
lfingers 7.12502
lthumb -185.159 87.7782
rfemur 1.09701 11.0748 20.6198
rtibia 43.8602
rfoot -10.3124 11.1936
rtoes 2.70607
lfemur -28.9787 -0.253602 -18.523
ltibia 10.8276
lfoot 3.25655 12.9196
ltoes -0.779426
1362
root -3.19926 18.2541 -30.1648 -154.09 -77.0932 141.824
lowerback 1.96691 5.54672 3.45009
upperback 6.94645 6.9864 3.48146
thorax 6.11247 3.46393 1.94273
lowerneck 1.11037 23.7149 9.49138
upperneck 11.5457 31.9089 -1.58108
head 5.04988 16.0443 -0.00158379
rclavicle -2.00897e-014 -3.49861e-014
rhumerus -73.6654 20.2583 -110.506
rradius 34.5877
rwrist 0.541354
rhand 8.63927 397.212
rfingers 7.12502
rthumb 33.8346 -349.608
lclavicle -2.00897e-014 -3.49861e-014
lhumerus -23.1877 39.4885 -10.1427
lradius 33.1673
lwrist 39.2459
lhand -31.6501 62.2052
lfingers 7.12502
lthumb -184.911 87.8717
rfemur 0.55813 10.0221 21.3437
rtibia 45.0542
rfoot -10.2991 11.8268
rtoes 8.24036
lfemur -29.0748 3.64578 -20.821
ltibia 15.71
lfoot 4.52521 7.13173
ltoes -9.28562
